# xmcd
#
# Track frame offsets:
#	150
#	20170
#	34705
#	47805
#	62037
#	72851
#	90166
#	109318
#	124772
#	143406
#	159378
#	176783
#	193032
#	212555
#	241763
#
# Disc length: 3901 seconds
#
# Revision: 1
# Processed by: cddbd v1.5.1PL2 Copyright (c) Steve Scherf et al.
# Submitted via: audiograbber 1.83.01
#
DISCID=ca0f3b0f
DTITLE=Various Artist - Blue Ribbon Country Love Songs
DYEAR=1900
DGENRE=
TTITLE0=Alabama - Angels Among Us
TTITLE1=Charllie Rich - Behind Closed Doors
TTITLE2=Patsy Cline - Crazy
TTITLE3=George Jones - He Stopped Loving Her Today
TTITLE4=Conway Twitty - It's Only Make Believe
TTITLE5=Reba McEntire - Love Will Find It's Way To You
TTITLE6=Tim McGraw - Red Ragtop
TTITLE7=Faith Hill - Take Me As I Am
TTITLE8=LeAnn Rimes - Unchained Melody
TTITLE9=Kenny Rogers - You Are So Beautiful
TTITLE10=Anne Murray - You Needed Me
TTITLE11=Jessi Colter - I'm Not Lisa
TTITLE12=Olivia Newton John - I Honestly Love You
TTITLE13=Brooks and Dunn - The Long Goodbye
TTITLE14=Data Track - Data Track
EXTD=
EXTT0=
EXTT1=
EXTT2=
EXTT3=
EXTT4=
EXTT5=
EXTT6=
EXTT7=
EXTT8=
EXTT9=
EXTT10=
EXTT11=
EXTT12=
EXTT13=
EXTT14=
PLAYORDER=
